<svg width="18" height="18" viewBox="0 0 18 18" fill="none" xmlns="http://www.w3.org/2000/svg">
<path d="M17.64 9.20455C17.64 8.56682 17.5827 7.95273 17.4764 7.36364H9V10.845H13.8436C13.635 11.9705 13.0009 12.9232 12.0477 13.5618V15.8195H14.9564C16.6582 14.2527 17.64 11.9464 17.64 9.20455Z" fill="#4285F4"/>
<path d="M9 18C11.43 18 13.4673 17.1941 14.9564 15.8195L12.0477 13.5618C11.2418 14.1014 10.2109 14.4205 9 14.4205C6.96273 14.4205 5.22091 13.0127 4.56 11.1873H1.55818V13.5195C3.03727 16.2482 5.79455 18 9 18Z" fill="#34A853"/>
<path d="M4.56 11.1873C4.36273 10.5982 4.25182 9.97409 4.25182 9.32727C4.25182 8.68045 4.36273 8.05636 4.56 7.46727V5.135H1.55818C0.953636 6.31591 0.636364 7.64727 0.636364 9.32727C0.636364 10.9364 0.953636 12.2677 1.55818 13.5195L4.56 11.1873Z" fill="#FBBC05"/>
<path d="M9 4.23409C10.3209 4.23409 11.5077 4.72182 12.4405 5.62091L15.0218 3.04C13.4673 1.56091 11.43 0.636364 9 0.636364C5.79455 0.636364 3.03727 2.38818 1.55818 5.135L4.56 7.46727C5.22091 5.64182 6.96273 4.23409 9 4.23409Z" fill="#EA4335"/>
</svg>